<svg width="20" height="20" viewBox="0 0 16 17" fill="none" xmlns="http://www.w3.org/2000/svg">
<path d="M1.2417 7.42878C0.650079 7.42878 0.170476 7.90838 0.170476 8.5C0.170476 9.09162 0.650079 9.57123 1.2417 9.57123L1.2417 7.42878ZM15.5157 9.25747C15.934 8.83913 15.934 8.16087 15.5157 7.74253L8.69847 0.92531C8.28013 0.506971 7.60187 0.506972 7.18353 0.925311C6.76519 1.34365 6.76519 2.02191 7.18353 2.44025L13.2433 8.5L7.18353 14.5598C6.76519 14.9781 6.76519 15.6564 7.18353 16.0747C7.60187 16.493 8.28013 16.493 8.69847 16.0747L15.5157 9.25747ZM1.2417 9.57123L14.7582 9.57122L14.7582 7.42878L1.2417 7.42878L1.2417 9.57123Z" fill="white"/>
</svg>
