<svg width="26" height="25" viewBox="0 0 26 25" fill="none" xmlns="http://www.w3.org/2000/svg">
<path d="M5.49367 16.7594H2.49789C2.10062 16.7594 1.71963 16.6133 1.43872 16.3533C1.15781 16.0933 1 15.7406 1 15.3729V9.82703C1 9.45932 1.15781 9.10666 1.43872 8.84665C1.71963 8.58664 2.10062 8.44056 2.49789 8.44056H5.49367L10.7363 2.20144C10.8672 1.96606 11.0848 1.78179 11.3497 1.68192C11.6145 1.58205 11.9093 1.57318 12.1806 1.6569C12.452 1.74061 12.682 1.91141 12.8292 2.13841C12.9764 2.36542 13.031 2.63366 12.9831 2.89468V22.3053C13.031 22.5663 12.9764 22.8345 12.8292 23.0615C12.682 23.2885 12.452 23.4593 12.1806 23.5431C11.9093 23.6268 11.6145 23.6179 11.3497 23.518C11.0848 23.4182 10.8672 23.2339 10.7363 22.9985L5.49367 16.7594Z" stroke="white" stroke-width="2" stroke-linecap="round" stroke-linejoin="round"/>
<path d="M20 9.59998L25 15.6M25 9.59998L20 15.6" stroke="white" stroke-width="2" stroke-linecap="round" stroke-linejoin="round"/>
</svg>
