<svg width="26" height="25" viewBox="0 0 26 25" fill="none" xmlns="http://www.w3.org/2000/svg">
<path d="M5.49367 16.9594H2.49789C2.10062 16.9594 1.71963 16.8133 1.43872 16.5533C1.15781 16.2933 1 15.9406 1 15.5729V10.027C1 9.65933 1.15781 9.30668 1.43872 9.04666C1.71963 8.78665 2.10062 8.64057 2.49789 8.64057H5.49367L10.7363 2.40145C10.8672 2.16607 11.0848 1.9818 11.3497 1.88193C11.6145 1.78206 11.9093 1.77319 12.1806 1.85691C12.452 1.94063 12.682 2.11142 12.8292 2.33842C12.9764 2.56543 13.031 2.83368 12.9831 3.09469V22.5053C13.031 22.7663 12.9764 23.0345 12.8292 23.2615C12.682 23.4886 12.452 23.6593 12.1806 23.7431C11.9093 23.8268 11.6145 23.8179 11.3497 23.718C11.0848 23.6182 10.8672 23.4339 10.7363 23.1985L5.49367 16.9594Z" stroke="white" stroke-width="2" stroke-linecap="round" stroke-linejoin="round"/>
<path d="M22 7.79999C22.828 8.42097 23.5 9.22619 23.9628 10.1519C24.4257 11.0776 24.6667 12.0984 24.6667 13.1333C24.6667 14.1683 24.4257 15.189 23.9628 16.1147C23.5 17.0404 22.828 17.8457 22 18.4667" stroke="white" stroke-width="2" stroke-linecap="round" stroke-linejoin="round"/>
</svg>
